<?xml version="1.0" encoding="UTF-8" standalone="no"?><!DOCTYPE svg PUBLIC "-//W3C//DTD SVG 1.1//EN" "http://www.w3.org/Graphics/SVG/1.1/DTD/svg11.dtd"><svg width="100%" height="100%" viewBox="0 0 1900 1900" version="1.1" xmlns="http://www.w3.org/2000/svg" xmlns:xlink="http://www.w3.org/1999/xlink" xml:space="preserve" xmlns:serif="http://www.serif.com/" style="fill-rule:evenodd;clip-rule:evenodd;stroke-linejoin:round;stroke-miterlimit:2;"><circle cx="950" cy="950" r="658.333" style="fill:#fff;"/><g><path d="M632.915,759.663c-19.953,33.093 -34.533,69.145 -43.264,106.813l-72.734,40.869c-2.794,28.368 -2.794,56.942 -0,85.31l48.317,27.149l-88.275,217.687c-50.783,-83.845 -80.041,-182.267 -80.041,-287.491c-0,-35.126 3.26,-69.493 9.637,-102.744l226.36,-87.593Z"/><path d="M1338.26,882.156l87.253,-215.345c49.295,82.868 77.574,179.741 77.574,283.189c0,40.607 -4.357,80.202 -12.744,118.278l-223.88,86.707l-2.592,-9.241c21.572,-34.589 37.278,-72.507 46.483,-112.22l72.734,-40.869c2.794,-28.368 2.794,-56.942 0,-85.31l-44.828,-25.189Z"/><path d="M856.549,592.169c-36.118,9.361 -70.602,24.201 -102.293,43.965l-80.331,-22.532c-22.035,18.084 -42.239,38.288 -60.323,60.323l15.34,54.688l-216.506,91.063c32.184,-134.225 113.09,-249.485 222.924,-325.804l221.189,98.297Z"/><path d="M1274.66,1184.22l208.811,-87.897c-36.138,133.026 -120.458,246.189 -233.025,319.325l-220.955,-98.117l4.035,-7.182c39.713,-9.205 77.631,-24.911 112.22,-46.483l80.331,22.532c22.035,-18.084 42.239,-38.288 60.323,-60.323l-11.74,-41.855Z"/><path d="M878.305,568.599l-219.652,-90.1c84.59,-52.874 184.447,-83.366 291.347,-83.366c33.547,0 66.401,3.003 98.318,8.934l86.169,225.365c-31.483,-18.163 -65.507,-31.563 -100.963,-39.781l-40.869,-72.734c-28.368,-2.794 -56.942,-2.794 -85.31,-0l-29.04,51.682Z"/><path d="M755.755,1264.76c34.175,21.128 71.576,36.518 110.721,45.591l40.869,72.734c28.368,2.794 56.942,2.794 85.31,0l21.804,-38.804l211.22,86.572c-81.095,47.12 -175.281,74.016 -275.679,74.016c-36.386,-0 -71.957,-3.533 -106.329,-10.371l-87.916,-229.738Z"/><path d="M1167.18,630.12l-91.676,-220.436c136.102,31.632 252.997,113.788 329.929,225.757l-98.227,218.663c-9.41,-35.222 -24.025,-68.87 -43.345,-99.848l22.532,-80.331c-18.084,-22.035 -38.288,-42.239 -60.323,-60.323l-58.89,16.518Z"/><path d="M594.753,1052.85c9.399,32.708 23.338,63.968 41.381,92.898l-22.532,80.331c18.084,22.035 38.288,42.239 60.323,60.323l51.681,-14.496l90.057,216.368c-130.539,-32.69 -242.76,-111.976 -317.943,-219.256l97.033,-216.168Z"/></g></svg>