<?xml version="1.0" encoding="UTF-8" standalone="no"?><!DOCTYPE svg PUBLIC "-//W3C//DTD SVG 1.1//EN" "http://www.w3.org/Graphics/SVG/1.1/DTD/svg11.dtd"><svg width="100%" height="100%" viewBox="0 0 1900 1900" version="1.1" xmlns="http://www.w3.org/2000/svg" xmlns:xlink="http://www.w3.org/1999/xlink" xml:space="preserve" xmlns:serif="http://www.serif.com/" style="fill-rule:evenodd;clip-rule:evenodd;stroke-linejoin:round;stroke-miterlimit:2;"><g><path d="M479.389,667.505c-29.615,49.116 -51.253,102.625 -64.211,158.53l-107.952,60.657c-4.147,42.104 -4.147,84.512 0,126.616l71.711,40.294l-131.015,323.087c-75.37,-124.442 -118.796,-270.518 -118.796,-426.689c0,-52.133 4.839,-103.141 14.304,-152.491l335.959,-130.004Z"/><path d="M1526.24,849.307l129.499,-319.611c73.163,122.991 115.135,266.769 115.135,420.304c0,60.269 -6.468,119.034 -18.916,175.546l-332.278,128.689l-3.847,-13.715c32.017,-51.338 55.328,-107.614 68.989,-166.555l107.952,-60.657c4.147,-42.104 4.147,-84.512 0,-126.616l-66.534,-37.385Z"/><path d="M811.302,418.914c-53.605,13.893 -104.787,35.919 -151.822,65.253l-119.224,-33.442c-32.704,26.839 -62.692,56.827 -89.531,89.531l22.767,81.166l-321.333,135.154c47.767,-199.214 167.845,-370.281 330.859,-483.552l328.284,145.89Z"/><path d="M1431.85,1297.62l309.914,-130.455c-53.637,197.434 -178.782,365.388 -345.852,473.935l-327.937,-145.623l5.989,-10.66c58.941,-13.661 115.217,-36.972 166.555,-68.989l119.224,33.442c32.704,-26.839 62.692,-56.827 89.531,-89.531l-17.424,-62.119Z"/><path d="M843.591,383.933l-326.002,-133.725c125.546,-78.475 273.752,-123.73 432.411,-123.73c49.79,0 98.552,4.457 145.922,13.26l127.89,334.482c-46.726,-26.957 -97.225,-46.845 -149.847,-59.042l-60.657,-107.952c-42.104,-4.147 -84.512,-4.147 -126.616,0l-43.101,76.707Z"/><path d="M661.705,1417.16c50.723,31.357 106.232,54.198 164.33,67.664l60.657,107.952c42.104,4.147 84.512,4.147 126.616,0l32.361,-57.592l313.489,128.487c-120.36,69.935 -260.149,109.853 -409.158,109.853c-54.004,0 -106.797,-5.243 -157.812,-15.392l-130.483,-340.972Z"/><path d="M1272.34,475.241l-136.064,-327.168c202,46.949 375.492,168.883 489.675,335.065l-145.788,324.535c-13.966,-52.275 -35.657,-102.215 -64.332,-148.193l33.442,-119.224c-26.839,-32.704 -56.827,-62.692 -89.531,-89.531l-87.402,24.516Z"/><path d="M422.749,1102.64c13.95,48.545 34.639,94.939 61.418,137.878l-33.442,119.224c26.839,32.704 56.827,62.692 89.531,89.531l76.704,-21.515l133.66,321.13c-193.743,-48.519 -360.299,-166.193 -471.884,-325.417l144.013,-320.831Z"/></g><g id="appiconfg.svg"></g></svg>